name C:\Users\u0101727\Documents\MyRepositories\upper-imu-dc\Results\main_tracking\Case_51\kinematics.mot
datacolumns 10
datarows 18
range 0.70000000 0.87000000
endheader 
time	clav_prot	clav_elev	scapula_abduction	scapula_elevation	scapula_upward_rot	scapula_winging	plane_elv	shoulder_elv	axial_rot	
          0.70000000	        -18.59038043	         -3.81896081	         -5.16621400	         -3.75687286	         13.86233183	          4.64647017	        -21.41493512	         15.72436379	         40.14594714	
          0.71000000	        -18.52441993	         -3.93831160	         -5.03061603	         -3.74511400	         13.83883426	          4.65178490	        -21.40355692	         15.71518869	         40.35776920	
          0.72000000	        -18.53523606	         -3.92941756	         -5.06480163	         -3.73308515	         13.81662083	          4.65661738	        -21.39185791	         15.70803372	         40.56858146	
          0.73000000	        -18.54583710	         -3.92075405	         -5.09881514	         -3.72110128	         13.79395861	          4.66159954	        -21.37959695	         15.70054871	         40.77638286	
          0.74000000	        -18.55608103	         -3.91243319	         -5.13266523	         -3.70911343	         13.77036138	          4.66686590	        -21.36629231	         15.69227784	         40.97857900	
          0.75000000	        -18.56607213	         -3.90420197	         -5.16659803	         -3.69693218	         13.74582452	          4.67236011	        -21.35123422	         15.68340088	         41.17207630	
          0.76000000	        -18.57603173	         -3.89563139	         -5.20098600	         -3.68429408	         13.72055123	          4.67794004	        -21.33349280	         15.67433717	         41.35342688	
          0.77000000	        -18.58625036	         -3.88616833	         -5.23627980	         -3.67087744	         13.69487076	          4.68340630	        -21.31192090	         15.66559457	         41.51901476	
          0.78000000	        -18.59706764	         -3.87514712	         -5.27298172	         -3.65630524	         13.66921937	          4.68850748	        -21.28516120	         15.65770072	         41.66524974	
          0.79000000	        -18.60886146	         -3.86178583	         -5.31162639	         -3.64014253	         13.64414314	          4.69293684	        -21.25166108	         15.65116026	         41.78874636	
          0.80000000	        -18.62204113	         -3.84517825	         -5.35276573	         -3.62189248	         13.62030736	          4.69632696	        -21.20969460	         15.64642370	         41.88646721	
          0.81000000	        -18.63704322	         -3.82428647	         -5.39695814	         -3.60099328	         13.59850685	          4.69824482	        -21.15738871	         15.64386306	         41.95581998	
          0.82000000	        -18.65433040	         -3.79793729	         -5.44476260	         -3.57681804	         13.57967554	          4.69818913	        -21.09275126	         15.64375310	         41.99470480	
          0.83000000	        -18.67439352	         -3.76482576	         -5.49673818	         -3.54867976	         13.56489415	          4.69559091	        -21.01369875	         15.64625741	         42.00151614	
          0.84000000	        -18.69775674	         -3.72352788	         -5.55344862	         -3.51584273	         13.55539470	          4.68981861	        -20.91808440	         15.65141860	         41.97510968	
          0.85000000	        -18.72498439	         -3.67252342	         -5.61547096	         -3.47754031	         13.55255951	          4.68018791	        -20.80372890	         15.65915236	         41.91474796	
          0.86000000	        -18.75668746	         -3.61022833	         -5.68340552	         -3.43299822	         13.55791312	          4.66597649	        -20.66845776	         15.66924363	         41.82003877	
          0.87000000	        -18.79352755	         -3.53503533	         -5.75788365	         -3.38146188	         13.57310655	          4.64644252	        -20.51014830	         15.68134248	         41.69088287	
